<?xml version="1.0" encoding="utf-8"?>
<!-- Generator: Adobe Illustrator 26.0.2, SVG Export Plug-In . SVG Version: 6.00 Build 0)  -->
<svg version="1.1" xmlns="http://www.w3.org/2000/svg" xmlns:xlink="http://www.w3.org/1999/xlink" x="0px" y="0px"
	 viewBox="0 0 800 1600" style="enable-background:new 0 0 800 1600;" xml:space="preserve">
<style type="text/css">
	.st0{display:none;}
	.st1{display:inline;}
	.st2{opacity:0.21;fill:none;stroke:#000000;stroke-width:80;stroke-linejoin:round;stroke-miterlimit:10;}
	.st3{display:inline;fill:none;stroke:#FFFFFF;stroke-width:81;stroke-linecap:round;stroke-linejoin:round;stroke-miterlimit:10;}
</style>
<g id="Layer_1" class="st0">
	<rect class="st1" width="800" height="1600"/>
</g>
<g id="Layer_3">
	<polyline class="st2" points="72,116 648,116 648,260 216,260 216,476 360,476 360,404 504,404 504,476 576,476 576,692 504,692 
		360,692 360,620 288,620 288,692 216,692 216,836 576,836 	"/>
</g>
<g id="Layer_2" class="st0">
	<path class="st3" d="M72,260h252c19.88,0,36,16.12,36,36v72c0,19.88,16.12,36,36,36h288c19.88,0,36,16.12,36,36v72
		c0,19.88-16.12,36-36,36H396c-19.88,0-36,16.12-36,36v72c0,19.88-16.12,36-36,36h-72c-19.88,0-36-16.12-36-36V404
		c0-19.88-16.12-36-36-36h-72c-19.88,0-36,16.12-36,36v468c0,19.88,16.12,36,36,36h72c19.88,0,36-16.12,36-36v0
		c0-19.88,16.12-36,36-36h72c19.88,0,36,16.12,36,36v0c0,19.88,16.12,36,36,36h72c19.88,0,36-16.12,36-36v-72
		c0-19.88,16.12-36,36-36h0c19.88,0,36-16.12,36-36v0c0-19.88,16.12-36,36-36h72c19.88,0,36,16.12,36,36v180"/>
</g>
</svg>
