<svg version="1.1" xmlns="http://www.w3.org/2000/svg" width="1000.0" height="1000.0" viewBox="-500.0 -500.0 1000.0 1000.0"><path fill="none" stroke="#000000" d="M168.160,49.163 L148.964,43.551 L129.767,37.939 L110.571,32.327 L91.375,26.714 L72.178,21.102 L52.982,15.490 L57.411,5.313 L77.326,7.156 L97.241,8.998 L117.156,10.841 L137.071,12.684 L156.986,14.527 L159.745,9.708 L179.708,10.921 L181.605,-9.239 L161.631,-8.223 L169.744,-36.992 L150.203,-32.733 L154.932,-25.883 L174.658,-29.178 L180.074,-31.729 L199.771,-35.200 L198.391,-27.368 L178.579,-24.635 L181.656,-19.800 L161.774,-17.633 L152.410,-14.625 L132.502,-12.714 L112.593,-10.804 L92.684,-8.894 L82.730,-7.939 L71.684,-8.656 L51.829,-6.259 L28.012,-8.218 L47.203,-13.848 L66.395,-19.477 L85.586,-25.107 L104.777,-30.737 L123.968,-36.367 L143.160,-41.997 L125.910,-31.648 L145.307,-36.524 L151.222,-40.156 L160.887,-42.722 L180.217,-47.855 L194.009,-62.588 L174.975,-56.448 L155.941,-50.307 L146.424,-47.237 L133.099,-86.126 L141.494,-91.559 L158.285,-102.424 L175.077,-113.289 L191.868,-124.155 L195.579,-133.957 L179.078,-122.655 L167.563,-132.879 L175.398,-139.093 L191.069,-151.520 L196.921,-142.499 L180.719,-130.774 L164.516,-119.049 L148.313,-107.324 L132.110,-95.600 L115.908,-83.875 L99.705,-72.150 L83.502,-60.425 L83.349,-67.817 L67.835,-55.194 L52.322,-42.572 L36.808,-29.949 L24.500,-15.954 L41.260,-26.867 L58.020,-37.781 L74.780,-48.694 L91.540,-59.608 L108.300,-70.521 L125.060,-81.435 L102.477,-81.043 L110.320,-87.247 L126.007,-99.653 L141.694,-112.059 L157.381,-124.465 L160.430,-135.499 L168.070,-141.951 L183.350,-154.856 L198.629,-167.761 L197.126,-184.675 L182.531,-171.001 L175.233,-164.165 L176.297,-156.607 L161.344,-143.325 L146.392,-130.042 L131.440,-116.760 L116.487,-103.477 L101.535,-90.195 L86.582,-76.912 L101.070,-99.697 L108.189,-106.719 L122.427,-120.764 L136.666,-134.810 L150.905,-148.855 L165.143,-162.900 L140.631,-170.804 L146.987,-178.524 L159.699,-193.965 L142.368,-189.804 L130.367,-173.805 L132.474,-168.808 L120.126,-153.075 L113.953,-145.208 L110.109,-138.519 L97.664,-122.862 L85.219,-107.206 L72.774,-91.550 L82.719,-94.658 L95.879,-109.718 L109.040,-124.778 L122.200,-139.838 L111.904,-187.534 L101.656,-170.359 L37.450,-176.805 L33.306,-157.239 L29.161,-137.673 L18.524,-139.449 L21.158,-159.275 L23.792,-179.100 L26.425,-198.926 L15.553,-196.053 L13.971,-176.116 L13.181,-166.147 L5.100,-157.099 L5.749,-177.088 L6.398,-197.078 L-0.238,-185.976 L-0.212,-165.976 L-0.187,-145.976 L-0.161,-125.976 L-0.136,-105.976 L-0.123,-95.976 L-11.518,-96.536 L-12.702,-106.466 L-15.072,-126.325 L-17.441,-146.184 L-19.811,-166.043 L-23.975,-169.009 L-25.379,-178.910 L-28.188,-198.711 L-20.766,-191.871 L-18.614,-171.987 L-8.836,-172.945 L-9.856,-192.919 L-32.515,-182.599 L-29.009,-162.909 L-27.256,-153.064 L-25.493,-148.797 L-22.115,-129.084 L-18.738,-109.371 L-15.361,-89.658 L-11.983,-69.946 L-10.295,-60.089 L-24.717,-54.327 L-16.435,-36.123 L-7.481,-27.061 L-12.809,-46.338 L-18.138,-65.615 L-23.467,-84.892 L-28.796,-104.169 L-34.125,-123.446 L-33.079,-135.687 L-37.816,-155.118 L-38.231,-163.734 L-40.505,-173.472 L-45.052,-192.948 L-54.528,-191.387 L-49.048,-172.153 L-43.568,-152.918 L-38.087,-133.683 L-50.271,-123.466 L-42.729,-104.943 L-51.261,-107.096 L-42.626,-89.056 L-38.309,-80.036 L-28.236,-79.784 L-34.909,-98.638 L-41.581,-117.492 L-48.254,-136.346 L-54.927,-155.201 L-61.599,-174.055 L-68.272,-192.909 L-76.445,-196.522 L-69.194,-177.883 L-65.569,-168.563 L-52.812,-163.602 L-58.956,-182.635 L-78.259,-181.550 L-70.342,-163.184 L-62.425,-144.818 L-58.466,-135.634 L-64.601,-131.413 L-55.778,-113.465 L-61.368,-96.472 L-66.736,-104.910 L-77.470,-121.785 L-77.824,-109.995 L-66.273,-93.668 L-60.497,-85.505 L-50.821,-77.558 L-39.860,-60.829 L-28.898,-44.101 L-31.943,-58.316 L-36.747,-67.087 L-46.355,-84.628 L-55.963,-102.169 L-65.571,-119.710 L-75.179,-137.251 L-84.787,-154.792 L-89.850,-161.530 L-99.572,-179.008 L-109.294,-196.486 L-116.573,-189.260 L-106.084,-172.231 L-100.840,-163.717 L-104.943,-159.374 L-115.941,-176.078 L-120.911,-181.152 L-132.014,-197.786 L-133.102,-190.077 L-121.630,-173.695 L-110.158,-157.312 L-98.686,-140.929 L-87.214,-124.547 L-81.478,-116.355 L-80.228,-129.719 L-85.488,-138.224 L-96.008,-155.234 L-77.806,-153.106 L-86.867,-170.936 L-95.928,-188.766 L-89.921,-191.201 L-81.409,-173.103 L-72.898,-155.005 L-68.642,-145.955 L-98.908,-127.416 L-105.040,-135.316 L-117.304,-151.114 L-129.568,-166.913 L-138.319,-163.566 L-125.405,-148.295 L-112.490,-133.023 L-106.033,-125.387 L-99.715,-122.551 L-87.092,-107.037 L-74.469,-91.524 L-61.847,-76.010 L-49.224,-60.497 L-36.601,-44.984 L-23.979,-29.470 L-11.356,-13.957 L-20.320,-16.730 L-35.760,-29.443 L-51.201,-42.155 L-66.641,-54.867 L-82.081,-67.579 L-97.521,-80.292 L-112.961,-93.004 L-108.760,-100.469 L-94.069,-86.898 L-79.378,-73.327 L-64.687,-59.756 L-64.181,-44.685 L-72.388,-50.399 L-88.802,-61.827 L-105.215,-73.254 L-121.629,-84.682 L-138.042,-96.110 L-154.456,-107.537 L-141.340,-170.479 L-147.722,-178.177 L-160.487,-193.574 L-168.409,-187.344 L-155.038,-172.470 L-147.409,-195.536 L-135.370,-179.566 L-142.769,-139.424 L-149.924,-146.411 L-164.232,-160.384 L-178.541,-174.358 L-192.850,-188.331 L-192.185,-197.658 L-178.243,-183.319 L-173.284,-181.396 L-159.469,-166.934 L-153.568,-163.747 L-139.886,-149.159 L-126.205,-134.570 L-112.523,-119.982 L-98.842,-105.394 L-85.160,-90.805 L-71.479,-76.217 L-57.798,-61.629 L-55.844,-55.406 L-41.647,-41.320 L-55.153,-25.443 L-64.233,-29.632 L-82.394,-38.010 L-100.554,-46.388 L-118.715,-54.766 L-136.876,-63.144 L-155.037,-71.522 L-173.197,-79.900 L-180.743,-60.438 L-199.711,-66.781 L-199.655,-60.497 L-180.514,-54.698 L-170.944,-51.798 L-174.136,-46.632 L-154.817,-41.458 L-144.538,-42.397 L-125.346,-36.768 L-123.136,-30.100 L-103.708,-25.351 L-110.892,-10.516 L-120.847,-11.460 L-140.758,-13.348 L-139.157,-28.123 L-158.761,-32.085 L-164.370,-33.681 L-174.166,-35.688 L-193.759,-39.703 L-197.592,-32.765 L-177.861,-29.493 L-158.131,-26.222 L-138.400,-22.950 L-132.300,-22.964 L-112.595,-19.544 L-92.890,-16.124 L-73.184,-12.703 L-53.479,-9.283 L-43.626,-7.573 L-30.814,-18.137 L-48.050,-28.283 L-65.285,-38.428 L-82.521,-48.573 L-99.757,-58.718 L-116.993,-68.864 L-134.229,-79.009 L-151.465,-89.154 L-141.445,-90.426 L-124.594,-79.653 L-120.145,-96.420 L-135.743,-108.938 L-141.410,-110.702 L-149.284,-116.867 L-165.032,-129.195 L-180.780,-141.524 L-183.408,-137.515 L-199.409,-149.513 L-183.656,-157.790 L-198.826,-170.824 L-197.491,-185.413 L-182.910,-171.724 L-177.136,-164.012 L-162.461,-150.424 L-147.786,-136.836 L-133.110,-123.248 L-118.435,-109.660 L-114.061,-113.728 L-128.224,-127.850 L-140.523,-117.841 L-148.186,-124.267 L-163.510,-137.118 L-178.835,-149.969 L-175.900,-129.389 L-159.789,-117.538 L-161.151,-111.940 L-169.364,-117.645 L-185.790,-129.054 L-194.893,-123.429 L-177.996,-112.728 L-169.548,-107.378 L-164.599,-104.783 L-147.727,-94.043 L-160.621,-92.509 L-177.952,-102.491 L-170.058,-91.681 L-178.861,-96.426 L-196.465,-105.917 L-192.314,-96.018 L-174.420,-87.084 L-168.914,-84.768 L-151.038,-75.797 L-137.577,-70.376 L-119.771,-61.268 L-101.966,-52.160 L-139.904,-48.773 L-121.018,-42.189 L-116.473,-35.398 L-97.337,-29.582 L-87.769,-26.674 L-81.387,-28.936 L-62.543,-22.236 L-43.699,-15.537 L-24.854,-8.837 L-6.010,-2.137 L2.026,-1.934 L-5.208,4.970 L-19.677,18.778 L-34.145,32.586 L-48.614,46.395 L-63.082,60.203 L-73.935,68.945 L-81.249,75.764 L-95.876,89.404 L-110.503,103.044 L-125.131,116.684 L-139.758,130.324 L-154.385,143.964 L-169.012,157.603 L-183.639,171.243 L-182.588,177.795 L-196.917,191.748 L-182.475,191.812 L-168.690,177.322 L-154.905,162.831 L-141.120,148.341 L-134.227,141.095 L-123.484,130.342 L-109.729,115.823 L-102.852,108.564 L-95.736,98.395 L-81.789,84.061 L-74.815,76.893 L-61.528,77.777 L-67.732,85.619 L-80.140,101.305 L-92.549,116.990 L-104.957,132.675 L-117.366,148.361 L-129.774,164.046 L-142.183,179.731 L-154.591,195.417 L-146.662,199.741 L-134.825,183.620 L-128.906,175.560 L-123.177,171.284 L-111.500,155.046 L-105.662,146.928 L-97.958,147.191 L-109.039,163.841 L-120.119,180.491 L-131.200,197.140 L-118.315,197.083 L-108.021,179.935 L-97.727,162.788 L-95.197,156.354 L-84.796,139.271 L-80.178,136.792 L-70.064,119.537 L-59.951,102.283 L-55.117,97.449 L-45.271,80.041 L-40.348,71.336 L-30.682,78.020 L-38.001,96.632 L-45.321,115.245 L-44.224,123.079 L-47.605,132.490 L-54.368,151.312 L-61.131,170.134 L-61.429,177.733 L-67.962,196.636 L-76.440,198.999 L-69.268,180.329 L-73.329,173.455 L-65.542,155.034 L-57.754,136.612 L-53.860,127.401 L-60.276,126.628 L-51.680,108.570 L-43.084,90.511 L-34.488,72.453 L-25.892,54.394 L-17.296,36.336 L-8.700,18.277 L-3.144,17.016 L-4.961,26.850 L-8.595,46.517 L-12.230,66.184 L-13.904,71.699 L-17.711,91.333 L-21.519,110.968 L-25.326,130.602 L-29.134,150.236 L-32.941,169.870 L-36.748,189.504 L-28.969,181.335 L-25.814,161.585 L-19.200,159.806 L-21.586,179.663 L-23.972,199.520 L-17.062,195.868 L-15.326,175.943 L-13.590,156.019 L-11.855,136.094 L-10.119,116.169 L-8.384,96.245 L-6.648,76.320 L-4.913,56.396 L7.908,57.889 L9.261,67.797 L11.968,87.613 L14.675,107.429 L20.287,109.910 L23.917,129.578 L27.547,149.245 L27.192,162.950 L30.484,182.678 L25.642,194.306 L23.025,174.478 L20.408,154.650 L17.792,134.822 L15.175,114.994 L8.598,110.347 L10.152,130.287 L9.613,136.720 L10.315,146.696 L11.718,166.646 L4.318,167.890 L3.804,147.896 L3.290,127.903 L2.775,107.910 L2.261,87.916 L1.747,67.923 L1.233,47.929 L0.719,27.936 L-18.488,26.685 L-29.878,43.124 L-41.268,59.564 L-52.659,76.004 L-64.049,92.444 L-75.439,108.883 L-86.829,125.323 L-98.219,141.763 L-88.558,163.617 L-79.038,146.028 L-69.518,128.439 L-59.998,110.850 L-65.429,139.016 L-69.688,148.064 L-78.205,166.160 L-87.242,175.548 L-96.143,193.458 L-90.774,197.430 L-82.419,179.259 L-93.474,171.680 L-103.038,189.245 L-55.218,196.635 L-49.810,177.379 L-50.480,170.295 L-44.796,151.120 L-39.112,131.945 L-33.428,112.769 L-27.744,93.594 L-22.060,74.419 L-16.376,55.243 L-13.534,45.656 L-44.586,35.286 L-60.269,47.698 L-75.951,60.110 L-91.634,72.521 L-107.317,84.933 L-123.000,97.345 L-138.682,109.757 L-154.365,122.168 L-170.048,134.580 L-185.731,146.992 L-194.255,133.045 L-177.754,121.743 L-169.504,116.093 L-164.770,97.561 L-181.980,107.751 L-190.164,123.043 L-173.372,112.178 L-156.581,101.314 L-139.789,90.449 L-122.998,79.584 L-120.335,87.383 L-128.427,93.259 L-144.610,105.011 L-160.793,116.762 L-176.976,128.514 L-182.114,137.255 L-198.086,149.292 L-197.635,167.513 L-182.378,154.581 L-167.121,141.650 L-151.864,128.718 L-136.607,115.787 L-128.979,109.321 L-119.137,118.094 L-133.341,132.174 L-147.546,146.254 L-161.750,160.333 L-175.954,174.413 L-159.245,183.308 L-172.361,198.406 L-175.857,193.699 L-162.414,178.892 L-155.692,171.488 L-150.423,170.073 L-137.173,155.091 L-123.923,140.110 L-110.672,125.129 L-97.422,110.148 L-84.172,95.167 L-70.922,80.186 L-57.672,65.205 L-44.421,50.224 L-40.762,174.078 L-36.203,154.605 L-33.923,144.868 L-16.193,124.203 L-17.485,134.119 L-20.071,153.951 L13.950,176.135 L15.529,196.073 L6.357,195.544 L5.707,175.555 L-9.733,168.421 L-10.887,188.388 L-3.701,188.443 L-3.308,168.446 L-3.112,158.448 L-4.680,150.146 L-4.057,130.155 L-3.433,110.165 L-3.122,100.170 L66.093,104.754 L71.429,113.211 L82.101,130.126 L124.852,108.661 L132.395,115.226 L147.482,128.356 L143.007,114.881 L127.415,102.356 L121.680,99.527 L106.199,86.864 L90.718,74.202 L109.669,74.884 L126.186,86.163 L142.703,97.441 L159.220,108.719 L175.737,119.997 L192.253,131.275 L195.471,143.024 L179.330,131.214 L171.260,125.309 L162.948,121.248 L146.902,109.309 L130.857,97.370 L114.812,85.430 L98.766,73.491 L82.721,61.552 L69.766,65.862 L84.309,79.591 L85.576,86.408 L99.649,100.619 L113.723,114.829 L127.796,129.039 L141.870,143.250 L155.943,157.460 L170.017,171.671 L178.336,177.760 L192.501,191.879 L187.695,195.832 L173.856,181.393 L167.286,185.129 L153.877,170.290 L140.469,155.451 L127.060,140.611 L113.651,125.772 L100.242,110.933 L86.833,96.094 L73.424,81.255 L60.015,66.416 L53.310,58.996 L62.733,54.492 L47.634,41.376 L50.705,27.151 L59.520,31.872 L77.152,41.313 L94.783,50.754 L112.415,60.195 L130.046,69.636 L124.990,53.108 L143.397,60.929 L146.472,48.084 L155.973,51.203 L174.976,57.442 L193.978,63.680 L193.985,74.867 L175.326,67.666 L156.668,60.465 L138.009,53.264 L119.350,46.062 L100.692,38.861 L91.657,39.357 L73.279,31.466 L54.902,23.575 L36.525,15.683 L27.336,11.738 L34.666,6.870 L54.284,10.759 L73.903,14.647 L93.521,18.535 L113.140,22.423 L132.758,26.311 L152.376,30.199 L147.137,21.880 L127.354,18.938 L107.572,15.996 L123.183,30.100 L132.898,32.474 L152.326,37.221 L157.292,34.022 L176.840,38.250 L184.001,17.596 L164.092,15.692 L156.850,22.744 L176.643,25.614 L166.924,30.883 L186.590,34.521 L178.917,43.831 L198.342,48.590 L197.534,54.581 L178.256,49.255 L178.284,75.194 L159.856,67.421 L150.642,63.535 L150.564,72.433 L132.541,63.763 L114.518,55.092 L105.507,50.757 L85.418,52.105 L93.955,57.313 L111.029,67.728 L128.103,78.143 L145.177,88.559 L162.251,98.974 L179.325,109.389 L188.832,87.243 L170.676,78.854 L161.598,74.660 L135.064,71.246 L143.908,75.911 L161.598,85.242 L167.824,83.677 L176.773,88.139 L194.672,97.063 L198.904,112.679 L181.503,102.821 L164.101,92.963 L155.400,88.034 L107.157,100.689 L114.445,107.537 L129.020,121.232 L143.595,134.928 L153.151,134.333 L160.669,140.927 L175.705,154.116 L181.530,151.515 L196.884,164.330 L196.219,174.798 L181.286,161.495 L182.027,143.471 L166.320,131.091 L169.733,141.502 L154.371,128.695 L151.818,141.758 L166.437,155.407 L181.055,169.057 L195.673,182.706 L169.881,197.746 L156.848,182.576 L152.278,179.696 L139.348,164.438 L132.883,156.809 L128.797,150.417 L115.789,135.225 L110.192,155.614 L98.634,139.292 L87.076,122.970 L75.518,106.647 L63.960,90.325 L52.402,74.003 L33.623,69.638 L37.971,78.643 L46.667,96.654 L55.362,114.665 L64.058,132.675 L72.754,150.686 L77.976,145.003 L87.448,162.618 L78.616,162.056 L87.345,180.050 L96.075,198.045 L108.067,198.172 L98.491,180.613 L93.704,171.834 L96.127,167.051 L86.152,149.716 L76.177,132.381 L66.202,115.047 L56.227,97.712 L46.252,80.377 L36.277,63.042 L26.302,45.707 L16.327,28.372 L11.339,19.705 L2.512,10.553 L7.144,30.010 L11.775,49.466 L16.407,68.922 L21.039,88.379 L25.670,107.835 L30.302,127.291 L34.933,146.747 L33.532,151.753 L37.847,171.282 L42.163,190.811 L52.528,198.103 L47.402,178.771 L42.276,159.439 L39.713,149.773 L42.371,141.887 L48.094,161.051 L53.817,180.215 L70.068,173.218 L62.568,154.677 L55.069,136.137 L47.569,117.596 L40.069,99.056 L32.569,80.515 L18.236,53.820 L21.445,63.291 L27.863,82.233 L34.281,101.176 L40.699,120.118 L47.118,139.060 L53.536,158.002 L59.954,176.944 L66.372,195.887 L83.541,193.771 L75.623,175.405 L104.190,180.383 L114.193,197.702 L113.170,182.803 L102.643,165.798 L92.115,148.793 L99.843,150.551 L110.897,167.219 L121.951,183.887 L131.553,184.780 L119.954,168.487 L114.154,160.341 L126.105,166.572 L132.141,174.544 L144.213,190.490 L143.225,180.664 L155.649,196.336 L140.498,175.552 L128.001,159.937 L115.504,144.322 L103.007,128.707 L90.510,113.092 L78.013,97.477 L65.516,81.862 L53.019,66.247 L40.522,50.633 L28.025,35.018 L25.983,25.152 L40.353,39.063 L73.919,52.531 L57.617,40.945 L41.314,29.360 L25.011,17.774 L8.709,6.189 L4.484,-0.070 L4.484,-0.070 L24.482,-0.384 L44.479,-0.698 L64.477,-1.011 L84.474,-1.325 L104.472,-1.639 L124.469,-1.952 L144.467,-2.266 L164.464,-2.580 L184.462,-2.893 L185.302,3.661 L165.306,3.266 L158.211,3.943 L138.218,3.445 L128.221,3.195 L123.646,-17.710 L143.444,-20.546 L145.925,-27.309 L126.266,-23.630 L106.607,-19.951 L96.778,-18.112 L88.709,-18.138 L69.114,-14.132 L40.546,-17.774 L49.704,-21.789 L68.022,-29.818 L86.339,-37.848 L104.656,-45.878 L122.974,-53.907 L141.291,-61.937 L159.608,-69.967 L177.926,-77.996 L196.243,-86.026 L199.490,-95.293 L181.443,-86.672 L173.880,-82.479 L155.810,-73.908 L137.740,-65.336 L128.705,-61.050 L108.427,-64.468 L125.618,-74.689 L142.809,-84.910 L160.000,-95.131 L177.191,-105.352 L194.382,-115.574 L194.270,-107.169 L176.758,-97.508 L168.002,-92.678 L170.096,-87.884 L187.864,-97.064 L192.770,-70.812 L173.996,-63.915 L162.992,-59.267 L144.197,-52.432 L125.401,-45.598 L106.605,-38.763 L87.809,-31.929 L65.491,-34.536 L74.337,-39.200 L92.027,-48.529 L109.718,-57.858 L127.409,-67.187 L145.100,-76.517 L162.791,-85.846 L124.931,-144.699 L131.466,-152.268 L144.537,-167.406 L157.607,-182.545 L163.627,-180.148 L177.074,-194.953 L186.252,-185.714 L172.089,-171.592 L169.519,-178.788 L155.758,-164.275 L141.997,-149.762 L128.236,-135.248 L114.475,-120.735 L100.715,-106.221 L86.954,-91.708 L73.193,-77.195 L59.432,-62.681 L45.671,-48.168 L31.910,-33.655 L18.149,-19.141 L11.269,-11.885 L4.602,-12.502 L11.510,-31.270 L18.419,-50.039 L25.328,-68.808 L32.236,-87.577 L39.145,-106.346 L46.054,-125.115 L52.962,-143.884 L59.871,-162.652 L66.780,-181.421 L59.298,-189.188 L53.316,-170.104 L47.017,-167.286 L52.428,-186.540 L47.329,-193.267 L42.572,-173.841 L40.193,-164.128 L39.162,-155.685 L34.283,-136.289 L29.404,-116.893 L26.965,-107.195 L25.951,-85.533 L31.757,-104.672 L37.564,-123.810 L43.370,-142.949 L49.177,-162.087 L29.452,-170.142 L26.041,-150.435 L22.629,-130.728 L19.218,-111.021 L15.807,-91.315 L12.395,-71.608 L8.984,-51.901 L5.573,-32.194 L14.746,-23.454 L20.069,-31.920 L30.714,-48.851 L41.359,-65.783 L52.004,-82.714 L62.649,-99.646 L73.295,-116.578 L83.940,-133.509 L94.585,-150.441 L105.230,-167.372 L115.876,-184.304 L128.752,-185.653 L117.354,-169.218 L111.656,-161.001 L113.005,-156.274 L101.286,-140.067 L89.566,-123.861 L77.847,-107.654 L66.127,-91.447 L54.408,-75.241 L48.548,-67.137 L52.165,-63.021 L64.918,-78.428 L48.637,-87.300 L53.504,-96.036 L63.238,-113.507 L72.972,-130.979 L82.706,-148.450 L88.635,-159.391 L98.355,-176.870 L108.075,-194.349 L98.229,-193.377 L89.172,-175.545 L80.114,-157.714 L71.056,-139.882 L66.527,-130.967 L57.627,-140.594 L65.212,-159.099 L72.797,-177.605 L80.382,-196.111 L90.978,-198.156 L82.633,-179.981 L80.396,-174.864 L72.041,-156.693 L63.687,-138.521 L55.332,-120.350 L46.978,-102.178 L38.623,-84.007 L30.269,-65.835 L26.091,-56.750 L21.453,-80.364 L16.295,-61.040 L4.978,-64.132 L5.751,-74.102 L7.299,-94.042 L8.847,-113.982 L10.394,-133.922 L11.942,-153.862 L-10.103,-158.889 L-8.834,-138.929 L-7.565,-118.969 L-6.296,-99.009 L-5.026,-79.050 L-3.757,-59.090 L-2.488,-39.130 L-1.219,-19.171 L-0.584,-9.191 L-25.554,-1.196 L-35.543,-1.664 L-55.521,-2.599 L-75.499,-3.534 L-95.478,-4.469 L-115.456,-5.404 L-135.434,-6.339 L-151.984,-17.571 L-161.918,-18.720 L-181.786,-21.017 L-193.212,-10.104 L-173.239,-9.059 L-153.266,-8.015 L-143.280,-7.493 L-165.727,21.197 L-185.565,23.735 L-199.149,42.703 L-179.593,38.510 L-160.038,34.316 L-150.260,32.220 L-139.692,32.130 L-120.201,27.647 L-110.455,25.405 L-99.943,85.351 L-115.151,98.339 L-116.053,81.102 L-99.660,69.646 L-83.266,58.190 L-75.069,52.461 L-91.715,47.836 L-100.581,52.461 L-118.314,61.709 L-136.047,70.958 L-147.048,74.754 L-155.963,79.286 L-173.791,88.349 L-191.620,97.412 L-193.382,105.846 L-175.838,96.244 L-158.294,86.641 L-153.159,91.971 L-136.013,81.675 L-118.866,71.379 L-101.720,61.083 L-84.574,50.786 L-67.428,40.490 L-50.282,30.194 L-33.136,19.898 L-24.563,14.750 L-18.146,5.191 L-37.375,10.693 L-56.603,16.194 L-75.832,21.695 L-95.060,27.196 L-114.289,32.697 L-133.517,38.198 L-152.746,43.699 L-158.122,49.954 L-177.193,55.979 L-180.042,61.563 L-198.967,68.034 L-197.376,81.099 L-178.877,73.498 L-160.378,65.897 L-151.128,62.097 L-168.388,47.035 L-187.650,52.415 L-187.362,45.838 L-167.935,41.085 L-174.078,31.348 L-154.395,27.803 L-134.712,24.259 L-115.028,20.714 L-95.345,17.170 L-75.661,13.625 L-79.773,1.511 L-99.769,1.890 L-119.765,2.268 L-139.762,2.647 L-146.814,3.761 L-166.807,4.273 L-186.801,4.786 L-188.712,-3.966 L-168.716,-3.546 L-173.494,11.701 L-193.448,13.047 L-190.090,18.817 L-170.187,16.846 L-150.284,14.876 L-130.382,12.906 L-110.479,10.936 L-90.576,8.966 L-70.674,6.996 L-50.771,5.026 L-40.819,4.041 L-38.669,16.964 L-56.985,24.999 L-63.359,23.429 L-72.738,26.897 L-91.497,33.834 L-110.255,40.771 L-129.014,47.707 L-147.772,54.644 L-166.531,61.581 L-185.289,68.517 L-189.059,84.959 L-170.816,76.761 L-152.573,68.563 L-134.331,60.365 L-116.088,52.168 L-97.846,43.970 L-79.603,35.772 L-70.482,31.673 L-66.523,-16.534 L-76.227,-18.947 L-95.637,-23.771 L-86.285,-34.634 L-95.565,-38.359 L-114.126,-45.810 L-132.686,-53.260 L-141.552,-57.314 L-160.090,-64.820 L-166.131,-69.019 L-175.366,-72.856 L-193.835,-80.529 L-191.618,-71.533 L-172.881,-64.538 L-170.867,-58.926 L-151.960,-52.405 L-167.042,-39.088 L-176.779,-41.366 L-196.253,-45.923"/><path fill="none" stroke="#1e1e1e" d="M-199.979,-172.103 L-184.819,-159.057 L-182.610,-161.056 L-197.610,-174.286 L-199.756,-164.843 L-184.330,-152.114 L-181.130,-152.239 L-150.510,-126.503 L-156.307,-123.931 L-140.636,-111.505 L-143.535,-104.268 L-175.897,-127.777 L-171.667,-129.498 L-115.784,-87.342 L-75.868,-57.231 L-77.802,-54.411 L-94.191,-65.873 L-159.750,-111.722 L-157.595,-102.390 L-191.137,-124.182 L-194.378,-129.894 L-169.435,-113.226 L-170.272,-120.895 L-194.733,-138.262 L-195.924,-151.415 L-172.186,-133.070 L-169.104,-134.649 L-192.573,-153.337 L-176.544,-144.106 L-122.316,-99.842 L-106.823,-87.195 L-111.017,-73.546 L-152.700,-101.160 L-141.658,-102.889 L-125.476,-91.136 L-116.238,-91.686 L-92.683,-73.107 L-89.603,-59.425 L-106.271,-70.479 L-112.884,-61.735 L-130.431,-71.331 L-136.307,-74.876 L-188.895,-103.763 L-186.337,-117.179 L-127.080,-79.915 L-67.823,-42.651 L-0.101,-0.063 L-0.101,-0.063 L2.840,2.534 L2.840,2.534 L6.458,2.037 L35.069,11.059 L101.829,32.111 L168.588,53.164 L170.938,60.264 L189.800,66.914 L188.510,70.568 L169.780,63.557 L162.258,60.388 L96.654,35.972 L68.538,25.508 L72.787,35.450 L135.720,66.101 L131.550,60.087 L95.166,43.468 L95.530,54.321 L121.609,69.150 L191.152,108.694 L197.740,105.005 L162.412,86.245 L150.391,106.570 L166.709,118.133 L169.621,117.845 L194.259,134.962 L198.208,132.631 L181.586,121.508 L190.583,124.203 L131.937,85.983 L115.181,75.064 L109.418,79.311 L93.224,67.573 L105.856,66.111 L114.337,71.408 L182.191,113.786 L181.033,108.996 L121.063,72.890 L103.929,62.573 L99.550,62.457 L40.254,25.255 L51.219,35.302 L92.388,63.677 L150.024,103.402 L135.394,98.915 L183.842,134.310 L170.741,144.135 L186.024,157.036 L184.241,160.824 L161.640,141.096 L160.473,138.064 L107.410,92.410 L54.346,46.757 L39.185,33.713 L34.878,37.267 L48.544,51.870 L103.209,110.280 L157.874,168.689 L163.410,174.748 L183.900,196.660 L195.391,194.457 L152.863,152.133 L144.186,158.359 L123.988,136.176 L121.143,142.201 L108.173,126.976 L114.945,127.043 L94.818,104.797 L98.835,100.094 L148.018,149.903 L144.539,149.477 L172.344,178.233 L171.019,166.497 L185.350,180.448 L188.691,175.541 L130.118,121.050 L115.475,107.427 L108.944,87.114 L77.703,62.133 L81.809,73.565 L89.245,80.251 L141.296,127.056 L193.346,173.862 L188.232,155.100 L134.209,110.586 L111.056,91.508 L114.377,90.853 L137.868,109.512 L192.681,153.051 L199.449,150.648 L135.613,102.431 L79.756,60.241 L23.899,18.051 L36.221,15.154 L73.122,30.593 L146.923,61.470 L133.101,52.893 L188.860,75.051 L198.933,83.120 L152.799,63.844 L167.826,44.098 L196.841,51.722 L199.329,29.288 L179.542,26.380 L179.394,22.717 L199.235,25.230 L191.088,34.583 L122.207,22.117 L102.527,18.555 L94.876,4.071 L164.811,7.072 L168.093,8.254 L198.057,9.726 L198.678,-6.727 L128.718,-4.358 L143.275,3.547 L163.269,4.042 L155.015,-9.955 L125.077,-8.032 L127.827,-11.371 L147.748,-13.143 L151.135,-13.086 L190.986,-16.536 L199.584,-33.364 L120.679,-20.173 L41.774,-6.983 L12.184,-2.037 L7.935,7.711 L58.134,56.496 L108.334,105.281 L165.705,161.035 L171.123,162.443 L185.628,176.212 L177.427,181.190 L191.420,195.480 L189.225,198.203 L175.414,183.737 L172.986,192.839 L146.276,163.064 L125.253,169.906 L143.055,194.053 L125.404,192.674 L87.219,134.006 L49.035,75.338 L10.850,16.670 L6.015,21.078 L16.992,59.543 L36.200,126.856 L55.409,194.169 L50.739,194.531 L43.167,165.502 L48.055,145.195 L57.482,173.676 L60.885,166.279 L36.816,100.547 L26.501,72.376 L17.254,71.102 L26.686,109.974 L43.194,178.000 L39.781,174.908 L44.217,194.410 L28.774,197.032 L21.549,147.557 L14.125,146.526 L17.963,186.342 L14.070,188.946 L12.585,169.001 L20.704,173.920 L12.430,104.411 L19.528,113.778 L22.911,133.490 L40.045,127.847 L28.089,89.676 L28.199,86.979 L22.031,67.954 L23.941,58.851 L42.782,105.165 L69.159,170.005 L73.389,178.254 L81.004,196.748 L72.421,190.691 L65.320,171.994 L64.255,178.014 L71.045,196.826 L65.415,195.503 L59.069,176.536 L57.056,182.271 L42.119,134.554 L65.360,127.103 L79.080,153.783 L84.068,157.880 L98.168,184.360 L105.500,179.998 L90.330,154.116 L94.077,150.204 L83.461,133.254 L88.996,127.138 L123.404,176.291 L130.609,180.971 L89.643,124.209 L85.752,119.194 L44.872,62.371 L42.549,70.560 L58.041,96.251 L94.189,156.195 L100.963,162.493 L116.796,187.974 L121.620,180.335 L93.663,138.882 L104.233,134.537 L147.104,189.873 L155.974,195.162 L112.272,140.480 L127.804,147.714 L160.519,185.525 L151.141,182.941 L106.557,128.976 L74.711,90.429 L68.521,82.561 L49.362,59.476 L33.732,68.881 L55.722,113.785 L86.509,176.652 L85.702,185.740 L73.133,158.500 L70.153,157.245 L41.633,93.318 L13.113,29.392 L4.964,11.127 L-0.613,20.205 L-2.130,70.182 L-4.556,150.145 L-6.347,153.614 L-7.999,193.580 L-23.960,192.419 L-19.017,152.726 L-79.164,134.556 L-109.589,186.269 L-67.759,193.501 L-57.844,165.187 L-44.017,171.144 L-48.998,190.514 L-40.923,182.272 L-34.351,153.001 L-30.935,164.904 L-36.466,194.390 L-38.074,189.844 L-22.343,111.406 L-14.478,72.187 L-28.628,51.487 L-43.207,77.707 L-77.224,138.886 L-81.570,144.329 L-111.091,196.563 L-104.404,196.090 L-95.005,178.437 L-92.208,179.447 L-78.497,152.763 L-72.792,153.391 L-38.494,81.117 L-8.483,17.876 L-12.465,12.827 L-33.373,34.341 L-89.128,91.711 L-85.636,92.752 L-105.987,114.793 L-96.008,108.949 L-135.676,153.965 L-138.533,155.693 L-165.122,185.577 L-170.349,199.211 L-144.353,168.810 L-141.096,169.232 L-128.288,153.871 L-130.190,160.912 L-142.770,176.460 L-174.419,166.274 L-152.705,145.574 L-147.024,144.764 L-189.778,186.860 L-193.429,194.874 L-137.071,138.095 L-122.982,123.901 L-121.790,132.288 L-148.883,161.715 L-152.647,164.401 L-166.255,179.058 L-169.746,182.677 L-183.360,197.328 L-181.228,189.100 L-132.794,138.562 L-91.279,95.244 L-93.550,92.739 L-107.753,106.820 L-113.564,110.949 L-127.870,124.926 L-131.275,118.287 L-138.704,124.981 L-190.707,171.839 L-190.156,177.028 L-138.922,129.330 L-87.687,81.633 L-65.729,61.191 L-58.209,66.258 L-91.209,103.821 L-82.153,107.169 L-112.572,146.852 L-115.567,149.636 L-133.904,173.380 L-135.621,176.059 L-153.929,199.825 L-160.829,198.942 L-148.255,183.388 L-143.277,194.168 L-95.777,129.796 L-48.277,65.424 L-42.501,59.502 L-1.815,2.540 L-1.815,2.540 L-7.170,2.509 L-54.365,19.023 L-63.265,13.403 L-112.179,23.766 L-190.442,40.347 L-190.656,33.745 L-170.962,30.259 L-193.254,25.235 L-113.927,14.877 L-94.096,12.287 L-93.945,6.148 L-73.988,4.842 L-85.037,-14.023 L-114.637,-18.905 L-120.235,-19.580 L-199.195,-32.439 L-195.272,-28.162 L-175.477,-25.307 L-173.306,-35.663 L-94.948,-19.538 L-65.564,-13.492 L-74.118,-21.643 L-102.915,-30.053 L-179.708,-52.477 L-180.280,-86.589 L-198.309,-95.248 L-195.955,-99.504 L-178.123,-90.448 L-173.860,-85.315 L-146.928,-72.099 L-152.420,-55.695 L-124.242,-45.399 L-115.163,-36.553 L-153.288,-48.655 L-156.370,-48.305 L-194.588,-60.110 L-197.017,-49.018 L-177.609,-44.189 L-170.166,-42.786 L-150.770,-37.909 L-141.819,-38.453 L-190.076,-51.537 L-189.895,-43.765 L-141.172,-32.536 L-139.087,-34.613 L-61.454,-15.294 L-32.342,-8.049 L-27.571,-12.979 L-81.857,-38.535 L-154.237,-72.608 L-157.203,-73.128 L-193.471,-89.999 L-196.493,-87.851 L-178.234,-79.688 L-178.001,-76.377 L-113.673,-48.775 L-67.724,-29.059 L-71.935,-37.582 L-125.114,-65.366 L-187.157,-97.780 L-183.815,-108.705 L-157.993,-93.434 L-152.447,-88.922 L-83.344,-48.614 L-66.068,-38.537 L-63.964,-34.598 L-46.373,-25.083 L-40.410,-29.205 L-72.829,-52.636 L-67.076,-54.721 L-20.585,-16.793 L-14.436,-18.176 L-57.972,-72.991 L-107.728,-135.636 L-151.264,-190.450 L-144.439,-187.601 L-132.238,-171.754 L-129.303,-168.601 L-117.132,-152.731 L-115.442,-154.034 L-139.431,-186.042 L-148.726,-181.559 L-161.400,-197.030 L-169.589,-199.202 L-124.212,-145.902 L-111.248,-130.673 L-102.874,-124.946 L-147.368,-178.986 L-128.499,-183.482 L-139.972,-199.864 L-130.887,-192.436 L-91.519,-134.555 L-80.271,-118.018 L-106.687,-103.911 L-92.360,-89.957 L-117.346,-7.166 L-157.272,-9.604 L-161.350,-11.601 L-181.298,-13.035 L-171.415,-9.292 L-191.385,-10.374 L-192.855,-18.575 L-153.039,-14.740 L-145.345,-16.132 L-185.101,-20.545 L-172.105,-22.917 L-102.718,-13.678 L-33.330,-4.438 L-23.418,-3.118 L-14.169,-14.199 L-56.552,-56.669 L-105.998,-106.218 L-102.095,-119.166 L-82.577,-96.384 L-62.652,-100.262 L-52.053,-83.301 L-59.778,-79.095 L-65.807,-87.073 L-114.043,-150.896 L-94.374,-152.269 L-115.447,-186.269 L-89.230,-179.205 L-98.144,-197.109 L-90.883,-195.073 L-78.214,-167.880 L-78.578,-174.490 L-49.835,-110.663 L-21.092,-46.837 L-29.508,-43.268 L-35.142,-51.530 L-74.581,-109.361 L-73.339,-102.521 L-79.157,-110.654 L-119.884,-167.586 L-112.128,-172.828 L-74.029,-114.104 L-72.228,-117.440 L-87.944,-142.994 L-67.178,-143.140 L-75.675,-161.246 L-79.096,-190.296 L-63.744,-153.359 L-28.085,-176.007 L-31.237,-195.757 L-28.294,-196.705 L-18.328,-127.418 L-8.361,-58.131 L-5.514,-38.335 L1.599,-34.927 L4.344,-94.864 L7.546,-164.791 L11.563,-168.989 L12.928,-188.943 L16.396,-190.362 L14.680,-170.435 L16.328,-161.156 L10.280,-101.462 L8.187,-95.688 L5.630,-65.797 L16.238,-68.727 L25.435,-107.655 L27.243,-116.066 L38.668,-164.743 L38.962,-173.177 L43.352,-192.689 L57.735,-196.146 L43.617,-148.180 L49.577,-146.071 L62.433,-183.949 L56.092,-179.863 L47.161,-151.223 L42.522,-156.128 L50.405,-185.074 L47.445,-185.030 L30.058,-117.224 L14.925,-115.525 L21.332,-165.113 L17.335,-167.309 L20.427,-197.150 L25.846,-199.873 L21.999,-170.120 L26.125,-168.295 L23.057,-148.532 L21.933,-142.593 L15.852,-103.058 L13.005,-100.289 L4.003,-30.871 L1.431,-11.037 L5.172,-7.916 L48.928,-74.888 L92.685,-141.861 L94.357,-145.811 L105.223,-162.602 L103.182,-164.692 L87.255,-139.269 L78.131,-135.757 L98.084,-170.426 L104.013,-172.808 L67.914,-112.833 L47.286,-78.562 L46.776,-83.989 L66.238,-118.935 L105.163,-188.827 L104.571,-181.359 L114.562,-198.685 L117.831,-196.965 L107.564,-179.801 L111.974,-180.009 L122.538,-196.991 L130.611,-196.224 L113.988,-171.251 L114.052,-167.574 L74.667,-109.706 L69.040,-101.439 L78.945,-90.340 L118.426,-135.520 L120.546,-137.398 L140.331,-159.949 L138.214,-167.629 L157.299,-190.776 L153.938,-194.054 L135.294,-170.551 L128.378,-171.267 L140.373,-187.270 L134.164,-192.783 L122.739,-176.367 L118.379,-183.602 L107.541,-166.793 L123.715,-162.524 L75.260,-98.868 L63.146,-82.954 L62.796,-72.529 L75.887,-87.649 L82.239,-86.327 L102.931,-108.049 L104.382,-110.144 L111.261,-117.402 L166.290,-175.469 L162.734,-182.344 L176.051,-197.266 L179.535,-180.545 L130.177,-130.909 L138.924,-118.778 L123.723,-105.781 L125.991,-97.644 L165.512,-128.272 L168.118,-133.735 L199.422,-158.636 L196.012,-173.456 L181.035,-160.202 L178.927,-158.095 L118.976,-105.124 L66.519,-58.774 L14.062,-12.425 L19.097,-7.315 L84.466,-32.352 L159.174,-60.966 L149.361,-46.113 L197.136,-60.863 L190.585,-63.269 L171.604,-56.968 L174.011,-49.921 L145.174,-41.648 L137.150,-40.800 L117.980,-35.097 L116.739,-41.921 L135.562,-48.680 L142.915,-50.271 L199.515,-70.180 L193.048,-71.423 L164.912,-61.013 L165.064,-64.614 L183.688,-71.904 L180.568,-73.424 L199.095,-80.958 L196.705,-83.792 L132.305,-56.359 L77.104,-32.845 L74.978,-33.792 L56.744,-25.574 L53.431,-17.677 L100.900,-33.383 L167.357,-55.370 L173.780,-39.562 L193.281,-44.001 L194.231,-36.922 L174.583,-33.187 L171.842,-32.452 L142.363,-26.885 L138.803,-29.085 L187.740,-39.339 L193.167,-27.424 L123.862,-17.585 L124.177,-12.319 L94.323,-9.358 L87.662,-11.229 L107.500,-13.770 L107.051,-20.582 L136.512,-26.246 L132.046,-14.380 L161.869,-17.628 L163.377,-19.157 L183.240,-21.486 L190.766,-20.020 L170.875,-17.932 L164.584,-10.666 L194.521,-12.607 L189.232,3.746 L169.235,3.351 L171.996,-0.659 L101.996,-0.391 L61.996,-0.237 L57.303,-5.858 L87.148,-8.909 L90.945,4.893 L70.974,3.819 L54.167,7.427 L103.704,14.219 L173.055,23.727 L175.877,27.400 L156.115,24.321 L158.425,39.746 L90.529,22.712 L73.921,20.911 L83.543,23.633 L150.900,42.688 L156.813,44.933 L176.039,50.442 L177.117,54.155 L196.243,60.003 L188.183,63.058 L140.774,47.172 L132.982,26.789 L181.997,36.663 L187.474,45.351 L168.034,40.648 L172.829,37.726 L104.440,22.798 L84.900,18.532 L97.945,18.610 L29.175,5.543 L18.194,9.866 L70.938,38.467 L141.264,76.603 L141.371,73.542 L159.114,82.771 L170.520,85.516 L188.397,94.482 L190.923,86.298 L172.698,78.061 L168.947,73.481 L150.607,65.505 L158.008,73.230 L139.862,64.820 L141.301,68.715 L168.280,81.835 L136.863,70.841 L119.101,61.647 L94.566,-44.364 L139.832,-65.600 L132.553,-59.563 L178.161,-80.057 L176.003,-85.532 L193.991,-94.274 L189.706,-88.337 L171.575,-79.894 L168.582,-79.229 L150.481,-70.723 L151.884,-80.241 L196.093,-103.597 L198.030,-100.488 L126.689,-64.287 L55.349,-28.086 L28.596,-14.511 L13.723,1.156 L33.653,2.834 L113.370,9.546 L118.150,7.779 L148.085,9.750 L148.794,13.436 L198.592,17.933 L192.537,20.817 L142.827,15.443 L140.277,13.828 L120.373,11.866 L124.004,-5.885 L54.082,-2.567 L34.105,-1.618 L36.153,-8.633 L94.512,-22.568 L162.598,-38.825 L171.798,-43.119 L191.196,-47.988 L188.014,-50.419 L149.379,-40.058 L146.113,-38.698 L107.446,-28.457 L107.722,-31.091 L88.506,-25.545 L84.597,-24.562 L65.390,-18.986 L99.371,-53.831 L116.956,-63.357 L143.503,-79.442 L195.996,-108.501 L174.423,-118.055 L157.860,-106.845 L157.011,-112.665 L124.512,-89.345 L119.945,-101.417 L97.036,-82.047 L85.379,-79.424 L107.345,-99.857 L113.182,-104.355 L135.238,-124.691 L186.702,-172.141 L184.719,-175.829 L170.233,-162.040 L164.927,-169.265 L185.863,-190.752 L185.048,-185.494 L199.173,-199.653 L185.657,-181.016 L149.857,-146.111 L132.522,-155.318 L158.485,-185.747 L138.146,-192.570 L97.343,-135.692 L56.540,-78.814 L39.052,-54.438 L30.537,-58.607 L53.641,-102.948 L85.988,-165.027 L88.413,-169.571 L102.282,-196.172 L106.710,-198.093 L97.225,-180.486 L91.845,-183.723 L69.488,-139.000 L66.314,-142.017 L36.698,-78.591 L33.496,-71.749 L12.345,-26.443 L10.316,-32.722 L1.296,-4.110 L3.029,-1.950 L3.029,-1.950 L70.299,-45.249 L137.569,-88.547 L139.469,-91.386 L198.019,-129.751 L198.048,-133.618 L181.469,-122.432 L181.593,-127.940 L165.243,-116.421 L164.921,-120.716 L197.198,-144.341 L184.218,-140.022 L160.334,-121.868 L155.534,-116.847 L91.573,-68.795 L35.607,-26.750 L41.117,-23.821 L49.770,-28.834 L110.339,-63.926 L170.908,-99.017 L172.821,-104.842 L189.920,-115.216 L195.083,-111.123 L177.704,-101.224 L181.971,-113.526 L148.034,-92.354 L147.703,-102.221 L81.920,-56.695 L65.475,-45.313 L54.711,-44.640 L70.207,-57.284 L75.835,-61.196 L91.399,-73.756 L97.676,-76.750 L113.402,-89.107 L117.017,-95.469 L148.011,-120.755 L151.108,-126.301 L197.145,-164.780 L195.731,-168.372 L150.245,-129.244 L148.596,-143.756 L112.660,-108.991 L68.479,-164.956 L60.811,-146.485 L70.727,-148.160 L87.959,-184.258 L85.446,-189.326 L77.218,-171.096 L72.307,-180.171 L79.756,-198.732 L82.928,-197.201 L71.298,-169.546 L74.267,-165.500 L57.891,-129.006 L93.791,-115.410 L43.337,-53.326 L18.110,-22.284 L44.822,-44.606 L73.175,-72.822 L122.792,-122.199 L128.608,-153.626 L96.512,-115.287 L98.940,-122.772 L130.314,-161.704 L126.854,-164.759 L139.055,-180.606 L149.842,-171.760 L162.990,-186.831 L168.435,-183.937 L114.407,-124.937 L60.379,-65.937 L33.366,-36.437 L22.984,-39.686 L38.020,-65.646 L22.194,-75.693 L41.890,-142.865 L45.667,-140.439 L24.021,-73.870 L17.836,-54.850 L17.193,-64.345 L9.449,-35.362 L8.023,-40.482 L11.912,-60.100 L25.521,-128.764 L23.944,-135.597 L32.639,-184.835 L38.270,-195.387 L26.737,-136.505 L49.735,-136.119 L66.895,-183.082 L69.465,-176.835 L54.840,-139.604 L55.416,-135.680 L40.291,-98.650 L42.235,-96.773 L50.235,-115.103 L50.457,-132.661 L22.017,-57.887 L14.907,-39.193 L-5.797,-59.939 L-9.648,-99.753 L-16.387,-169.428 L-8.562,-161.753 L-9.620,-181.725 L-6.508,-182.984 L-5.441,-153.003 L-16.137,-140.894 L-20.689,-180.635 L-38.782,-162.346 L-31.811,-133.167 L-44.346,-129.471 L-67.029,-195.694 L-63.823,-199.543 L-42.498,-132.870 L-18.127,-56.673 L-15.080,-47.148 L-9.338,-48.867 L-13.092,-68.511 L-15.904,-73.419 L-22.256,-102.739 L-37.076,-171.152 L-46.495,-169.499 L-51.786,-188.787 L-54.443,-184.257 L-45.942,-155.487 L-43.842,-152.142 L-38.304,-132.924 L-36.127,-139.643 L-51.155,-197.731 L-44.667,-199.604 L-40.300,-180.087 L-37.357,-179.630 L-41.429,-199.211 L-37.025,-198.979 L-31.537,-169.486 L-31.439,-164.279 L-27.680,-144.636 L-26.562,-154.672 L-18.100,-105.393 L-24.137,-99.587 L-31.203,-128.743 L-35.823,-125.259 L-22.075,-77.186 L-20.682,-81.713 L-3.506,-13.853 L-1.053,-4.159 L-5.294,-9.012 L-40.748,-69.369 L-76.203,-129.726 L-116.722,-198.706 L-110.567,-199.899 L-91.206,-164.897 L-90.487,-160.535 L-65.936,-116.978 L8.587,-122.741 L11.379,-162.643 L4.879,-157.569 L5.808,-187.555 L1.966,-189.475 L1.655,-159.477 L2.101,-150.500 L1.264,-90.506 L-5.830,-85.380 L-6.512,-95.356 L-11.281,-165.194 L-13.706,-168.441 L-16.139,-198.343 L-1.564,-195.887 L-1.085,-135.889 L-4.968,-150.188 L-2.654,-80.226 L-0.670,-20.259 L-10.310,-26.019 L-13.994,-35.315 L-43.466,-109.689 L-69.254,-174.766 L-68.322,-178.440 L-75.473,-197.118 L-71.446,-194.091 L-64.537,-175.322 L-62.083,-171.163 L-55.263,-152.361 L-54.051,-148.663 L-33.549,-92.275 L-45.613,-84.710 L-55.095,-102.319 L-58.509,-109.871 L-72.610,-136.351 L-105.512,-198.137 L-99.805,-193.751 L-90.646,-175.971 L-86.158,-176.884 L-73.021,-149.913 L-73.033,-145.326 L-37.111,-73.845 L-28.130,-55.975 L-39.776,-44.073 L-46.476,-51.496 L-93.376,-103.462 L-95.551,-107.040 L-128.848,-144.340 L-175.464,-196.561 L-190.171,-188.948 L-140.514,-139.610 L-112.139,-111.417 L-106.404,-111.715 L-78.817,-82.751 L-70.068,-83.498 L-57.212,-68.178 L-70.001,-58.024 L-85.399,-70.788 L-82.261,-71.146 L-97.388,-84.229 L-157.896,-136.561 L-159.889,-150.541 L-181.731,-171.106 L-183.560,-177.722 L-140.454,-135.987 L-129.437,-138.209 L-184.122,-196.600 L-191.447,-196.887 L-177.504,-182.548 L-169.607,-175.537 L-114.019,-118.005 L-124.036,-119.773 L-138.424,-133.665 L-138.576,-123.997 L-160.932,-144.002 L-162.181,-140.013 L-177.320,-153.083 L-180.812,-166.343 L-121.937,-112.179 L-70.421,-64.786 L-48.343,-44.475 L-57.272,-22.161 L-94.577,-36.595 L-159.860,-61.856 L-159.572,-64.757 L-187.370,-76.038 L-195.050,-72.509 L-166.930,-62.056 L-174.892,-59.791 L-108.656,-37.146 L-32.957,-11.267 L-14.033,-4.797 L-14.884,-0.411 L-94.853,-2.618 L-92.063,3.455 L-142.028,5.329 L-147.213,6.856 L-167.191,7.786 L-172.365,10.054 L-192.331,11.218 L-191.089,5.689 L-161.102,4.796 L-163.049,-2.441 L-143.051,-2.141 L-149.662,-13.523 L-69.987,-6.324 L-50.068,-4.524 L-45.041,4.681 L-54.988,5.714 L-134.559,13.983 L-145.179,16.313 L-165.054,18.546 L-168.111,26.903 L-108.865,17.422 L-102.093,17.547 L-23.249,3.996 L-13.394,2.302 L-8.922,5.506 L-42.963,26.511 L-102.534,63.272 L-162.104,100.032 L-165.196,103.059 L-199.133,124.231 L-198.413,118.797 L-164.094,98.249 L-157.917,81.304 L-184.589,95.037 L-177.139,95.682 L-150.743,81.425 L-147.251,77.346 L-111.839,58.745 L-123.453,61.412 L-60.779,30.235 L-24.966,12.419 L-19.850,15.227 L-59.523,45.658 L-122.999,94.349 L-178.540,136.953 L-179.166,132.967 L-147.046,109.129 L-148.776,86.132 L-183.393,106.173 L-181.539,101.289 L-199.004,111.033 L-189.305,93.777 L-126.579,62.704 L-139.989,81.399 L-122.699,71.345 L-124.278,85.730 L-173.667,119.800 L-177.630,120.624 L-194.176,131.859 L-193.180,126.146 L-134.570,87.874 L-84.332,55.068 L-89.612,36.760 L-154.375,63.327 L-177.215,58.759 L-158.231,52.464 L-146.252,26.743 L-165.925,30.340 L-175.621,18.087 L-195.516,20.136 L-199.386,15.761 L-119.634,9.457 L-99.697,7.881 L-102.397,-3.830 L-172.348,-6.447 L-175.123,-3.421 L-195.119,-3.812 L-198.656,2.299 L-178.657,2.067 L-176.466,0.619 L-106.466,0.373 L-86.466,0.303 L-81.100,2.061 L-41.113,1.045 L-36.627,9.813 L-104.243,27.927 L-171.859,46.041 L-165.642,41.728 L-185.036,46.614 L-185.822,42.977 L-166.336,38.471 L-161.542,37.425 L-112.832,26.141 L-104.447,30.667 L-142.827,41.936 L-141.683,44.154 L-170.325,53.080 L-173.653,54.145 L-192.746,60.099 L-193.322,53.877 L-174.056,48.508 L-171.216,49.834 L-152.013,44.245 L-148.162,50.701 L-129.239,44.225 L-126.283,46.611 L-107.521,39.686 L-100.879,37.485 L-63.384,23.552 L-60.550,19.512 L-136.694,44.048 L-133.353,50.072 L-152.076,57.103 L-155.391,55.220 L-193.082,68.614 L-185.498,76.565 L-157.767,65.119 L-161.264,62.516 L-198.560,76.974 L-192.610,83.889 L-165.105,71.910 L-161.511,69.605 L-143.144,61.690 L-135.877,64.279 L-181.075,85.660 L-179.625,81.236 L-115.844,52.391 L-61.175,27.667 L-60.879,34.619 L-86.957,49.448 L-96.477,53.928 L-113.935,63.686 L-175.037,97.841 L-182.122,127.334 L-198.513,138.794 L-193.762,139.083 L-136.896,98.264 L-88.153,63.277 L-80.943,55.365 L-47.928,32.782 L-58.778,48.067 L-97.483,79.720 L-104.481,88.706 L-142.597,121.067 L-195.958,166.372 L-178.213,171.747 L-192.614,185.625 L-198.245,173.794 L-153.128,134.241 L-174.555,137.068 L-198.150,155.596 L-188.109,153.350 L-133.854,109.120 L-118.352,96.482 L-108.290,95.240 L-48.218,42.407 L-33.200,29.199 L-29.213,35.478 L-80.066,97.236 L-124.561,151.275 L-123.499,145.469 L-104.083,122.599 L-83.268,124.212 L-122.246,182.356 L-128.696,183.344 L-105.715,150.604 L-101.572,145.550 L-61.513,88.145 L-55.790,79.945 L-45.149,73.290 L-76.620,124.374 L-118.580,192.487 L-123.633,192.715 L-80.436,125.381 L-75.036,116.964 L-76.978,130.958 L-61.776,105.095 L-50.860,121.518 L-66.303,158.417 L-65.873,161.876 L-73.412,180.401 L-68.208,180.109 L-50.500,133.350 L-50.213,128.304 L-21.057,53.806 L-17.413,44.493 L-5.791,38.661 L-17.643,117.778 L-29.495,196.896 L-33.571,198.994 L-23.590,139.830 L-19.111,146.491 L-16.524,126.659 L-12.736,122.508 L-18.940,182.187 L-11.830,175.841 L-13.173,195.796 L-16.007,193.584 L-14.359,173.652 L-13.952,168.411 L-10.650,128.547 L-9.443,116.865 L-7.832,96.930 L-6.476,90.894 L-4.344,60.970 L2.983,60.959 L3.472,70.947 L7.383,150.852 L9.366,156.906 L11.749,196.835 L2.620,187.647 L1.503,107.655 L1.224,87.657 L-8.491,78.653 L-11.711,108.480 L-41.196,94.022 L-45.209,103.181 L-77.315,176.456 L-78.586,179.540 L-86.605,197.861 L-96.871,194.681 L-87.961,176.775 L-82.447,181.566 L-74.177,163.356 L-77.761,162.939 L-86.375,180.989 L-92.999,173.525 L-83.551,155.897 L-76.707,148.976 L-40.085,77.851 L-35.507,68.960 L-43.730,71.250 L-17.575,28.636 L-10.372,32.799 L-22.432,70.938 L-46.553,147.215 L-46.967,153.532 L-55.742,182.219 L-56.506,174.861 L-50.356,155.830 L-55.451,157.175 L-28.835,81.733 L-22.982,81.882 L-28.387,101.138 L-28.214,106.010 L-35.930,135.000 L-38.857,138.522 L-49.661,177.036 L-44.351,182.343 L-25.444,104.609 L-8.900,36.592 L-1.810,7.442 L1.707,11.587 L8.994,61.053 L20.653,140.199 L25.519,143.130 L34.295,192.354 L39.875,193.084 L35.830,173.497 L34.329,170.743 L20.531,102.117 L10.676,53.098 L20.791,55.380 L13.761,36.656 L20.483,37.180 L34.959,63.456 L68.736,124.768 L70.759,126.540 L95.162,170.180 L97.211,172.681 L111.928,198.823 L99.588,195.069 L90.494,177.256 L88.440,198.783 L72.180,162.237 L98.464,128.037 L55.792,72.548 L13.119,17.059 L2.921,35.614 L7.008,85.447 L13.548,165.179 L5.526,157.647 L6.227,177.635 L-3.425,196.956 L-2.729,156.962"/></svg>